<?xml version="1.0" encoding="UTF-8"?>
<!DOCTYPE svg PUBLIC "-//W3C//DTD SVG 1.1//EN" "http://www.w3.org/Graphics/SVG/1.1/DTD/svg11.dtd">
<svg xmlns="http://www.w3.org/2000/svg" version="1.1" width="96px" height="96px" style="shape-rendering:geometricPrecision; text-rendering:geometricPrecision; image-rendering:optimizeQuality; fill-rule:evenodd; clip-rule:evenodd" xmlns:xlink="http://www.w3.org/1999/xlink">
<g><path style="opacity:1" fill="#fef5f4" d="M 71.5,10.5 C 71.5,11.1667 71.8333,11.5 72.5,11.5C 73.5,12.8333 74.5,14.1667 75.5,15.5C 75.5,15.8333 75.5,16.1667 75.5,16.5C 75.6287,18.2161 75.962,19.8828 76.5,21.5C 76.5,22.8333 76.5,24.1667 76.5,25.5C 79.1667,25.5 81.8333,25.5 84.5,25.5C 84.5,27.8333 84.5,30.1667 84.5,32.5C 82.1667,32.5 79.8333,32.5 77.5,32.5C 77.5,47.5 77.5,62.5 77.5,77.5C 74.1667,77.5 70.8333,77.5 67.5,77.5C 67.5,62.8333 67.5,48.1667 67.5,33.5C 63.5,33.5 59.5,33.5 55.5,33.5C 55.5,48.1667 55.5,62.8333 55.5,77.5C 52.5,77.5 49.5,77.5 46.5,77.5C 46.8275,72.456 46.4941,67.456 45.5,62.5C 44.8933,62.6236 44.56,62.9569 44.5,63.5C 38.7898,67.8664 32.7898,71.8664 26.5,75.5C 25.0095,73.8744 23.5095,72.2077 22,70.5C 21.3333,69.8333 21.3333,69.1667 22,68.5C 28.414,64.0426 34.914,59.7093 41.5,55.5C 38.6956,54.6949 35.8623,54.0283 33,53.5C 28.683,56.1602 24.3497,58.8269 20,61.5C 18.0014,59.5065 16.5014,57.1732 15.5,54.5C 17.9816,52.3251 20.6483,50.3251 23.5,48.5C 18.2108,42.3171 17.3775,35.6505 21,28.5C 29.3763,22.3172 36.3763,23.6506 42,32.5C 42.9968,37.3747 42.1634,41.8747 39.5,46C 39.8361,47.0299 40.5028,47.5299 41.5,47.5C 42.9187,48.4511 44.5853,48.7845 46.5,48.5C 46.8254,40.6484 46.492,32.9818 45.5,25.5C 43.5669,24.3583 42.0669,22.6917 41,20.5C 40.51,19.2068 40.3433,17.8734 40.5,16.5C 40.5,14.5 40.5,12.5 40.5,10.5C 43.7305,5.55114 48.3971,3.21781 54.5,3.5C 61.2438,3.37632 66.9104,5.70966 71.5,10.5 Z"/></g>
<g><path style="opacity:1" fill="#f0b7b7" d="M 72.5,9.5 C 71.8333,9.5 71.5,9.83333 71.5,10.5C 66.9104,5.70966 61.2438,3.37632 54.5,3.5C 48.3971,3.21781 43.7305,5.55114 40.5,10.5C 28.6783,9.50492 16.6783,9.17159 4.5,9.5C 15.3206,8.5054 26.3206,8.17207 37.5,8.5C 39.7093,6.68555 42.0427,4.85222 44.5,3C 51.8981,0.890265 59.2314,1.05693 66.5,3.5C 68.8272,5.16057 70.8272,7.16057 72.5,9.5 Z"/></g>
<g><path style="opacity:0.981" fill="#917474" d="M 4.5,10.5 C 4.5,10.1667 4.5,9.83333 4.5,9.5C 16.6783,9.17159 28.6783,9.50492 40.5,10.5C 40.5,12.5 40.5,14.5 40.5,16.5C 39.8333,16.5 39.5,16.1667 39.5,15.5C 39.5,13.8333 39.5,12.1667 39.5,10.5C 28.1667,10.5 16.8333,10.5 5.5,10.5C 5.16667,10.5 4.83333,10.5 4.5,10.5 Z"/></g>
<g><path style="opacity:1" fill="#8d6f6f" d="M 72.5,9.5 C 78.0262,9.17859 83.3595,9.51192 88.5,10.5C 82.9738,10.1786 77.6405,10.5119 72.5,11.5C 71.8333,11.5 71.5,11.1667 71.5,10.5C 71.5,9.83333 71.8333,9.5 72.5,9.5 Z"/></g>
<g><path style="opacity:1" fill="#040000" d="M 5.5,10.5 C 16.8333,10.5 28.1667,10.5 39.5,10.5C 39.5,12.1667 39.5,13.8333 39.5,15.5C 30.1667,15.5 20.8333,15.5 11.5,15.5C 11.5,39.5 11.5,63.5 11.5,87.5C 35.5,87.5 59.5,87.5 83.5,87.5C 83.5,69.5 83.5,51.5 83.5,33.5C 84.7647,32.4855 85.4313,30.9855 85.5,29C 85.4313,27.0145 84.7647,25.5145 83.5,24.5C 83.5,21.5 83.5,18.5 83.5,15.5C 80.8333,15.5 78.1667,15.5 75.5,15.5C 74.5,14.1667 73.5,12.8333 72.5,11.5C 77.6405,10.5119 82.9738,10.1786 88.5,10.5C 88.5,37.8333 88.5,65.1667 88.5,92.5C 60.8333,92.5 33.1667,92.5 5.5,92.5C 5.5,65.1667 5.5,37.8333 5.5,10.5 Z"/></g>
<g><path style="opacity:1" fill="#4c0709" d="M 63.5,15.5 C 59.1667,15.5 54.8333,15.5 50.5,15.5C 50.8844,12.9504 52.3844,11.6171 55,11.5C 58.4294,11.7981 61.2627,13.1315 63.5,15.5 Z"/></g>
<g><path style="opacity:1" fill="#96100c" d="M 50.5,15.5 C 54.8333,15.5 59.1667,15.5 63.5,15.5C 64.1667,15.5 64.5,15.8333 64.5,16.5C 59.3814,15.8969 54.7147,16.5636 50.5,18.5C 49.1667,17.5 49.1667,16.5 50.5,15.5 Z"/></g>
<g><path style="opacity:1" fill="#e70804" d="M 39.5,15.5 C 39.5,16.1667 39.8333,16.5 40.5,16.5C 40.3433,17.8734 40.51,19.2068 41,20.5C 42.0669,22.6917 43.5669,24.3583 45.5,25.5C 45.5,32.8333 45.5,40.1667 45.5,47.5C 44.1667,47.5 42.8333,47.5 41.5,47.5C 40.5028,47.5299 39.8361,47.0299 39.5,46C 42.1634,41.8747 42.9968,37.3747 42,32.5C 36.3763,23.6506 29.3763,22.3172 21,28.5C 17.3775,35.6505 18.2108,42.3171 23.5,48.5C 20.6483,50.3251 17.9816,52.3251 15.5,54.5C 16.5014,57.1732 18.0014,59.5065 20,61.5C 24.3497,58.8269 28.683,56.1602 33,53.5C 35.8623,54.0283 38.6956,54.6949 41.5,55.5C 34.914,59.7093 28.414,64.0426 22,68.5C 21.3333,69.1667 21.3333,69.8333 22,70.5C 23.5095,72.2077 25.0095,73.8744 26.5,75.5C 32.7898,71.8664 38.7898,67.8664 44.5,63.5C 45.1667,68.1667 45.8333,72.8333 46.5,77.5C 49.5,77.5 52.5,77.5 55.5,77.5C 55.5,62.8333 55.5,48.1667 55.5,33.5C 59.5,33.5 63.5,33.5 67.5,33.5C 67.5,48.1667 67.5,62.8333 67.5,77.5C 70.8333,77.5 74.1667,77.5 77.5,77.5C 78.496,63.0095 78.8293,48.3428 78.5,33.5C 80.1667,33.5 81.8333,33.5 83.5,33.5C 83.5,51.5 83.5,69.5 83.5,87.5C 59.5,87.5 35.5,87.5 11.5,87.5C 11.5,63.5 11.5,39.5 11.5,15.5C 20.8333,15.5 30.1667,15.5 39.5,15.5 Z"/></g>
<g><path style="opacity:1" fill="#eb1008" d="M 64.5,16.5 C 66.0075,18.1815 67.0075,20.1815 67.5,22.5C 63.6273,24.4302 59.294,25.0969 54.5,24.5C 52.1782,23.1979 50.8449,21.1979 50.5,18.5C 54.7147,16.5636 59.3814,15.8969 64.5,16.5 Z"/></g>
<g><path style="opacity:1" fill="#eb0603" d="M 75.5,16.5 C 77.8333,16.5 80.1667,16.5 82.5,16.5C 82.5,19.1667 82.5,21.8333 82.5,24.5C 80.8333,24.5 79.1667,24.5 77.5,24.5C 77.7373,23.209 77.404,22.209 76.5,21.5C 75.962,19.8828 75.6287,18.2161 75.5,16.5 Z"/></g>
<g><path style="opacity:1" fill="#810000" d="M 75.5,16.5 C 75.5,16.1667 75.5,15.8333 75.5,15.5C 78.1667,15.5 80.8333,15.5 83.5,15.5C 83.5,18.5 83.5,21.5 83.5,24.5C 83.1667,24.5 82.8333,24.5 82.5,24.5C 82.5,21.8333 82.5,19.1667 82.5,16.5C 80.1667,16.5 77.8333,16.5 75.5,16.5 Z"/></g>
<g><path style="opacity:1" fill="#f3a9a9" d="M 67.5,22.5 C 68.404,23.209 68.7373,24.209 68.5,25.5C 63.6367,25.8195 58.97,25.4861 54.5,24.5C 59.294,25.0969 63.6273,24.4302 67.5,22.5 Z"/></g>
<g><path style="opacity:1" fill="#f48c8c" d="M 45.5,25.5 C 46.492,32.9818 46.8254,40.6484 46.5,48.5C 44.5853,48.7845 42.9187,48.4511 41.5,47.5C 42.8333,47.5 44.1667,47.5 45.5,47.5C 45.5,40.1667 45.5,32.8333 45.5,25.5 Z"/></g>
<g><path style="opacity:1" fill="#e69d9a" d="M 76.5,21.5 C 77.404,22.209 77.7373,23.209 77.5,24.5C 79.1667,24.5 80.8333,24.5 82.5,24.5C 82.8333,24.5 83.1667,24.5 83.5,24.5C 84.7647,25.5145 85.4313,27.0145 85.5,29C 85.4313,30.9855 84.7647,32.4855 83.5,33.5C 81.8333,33.5 80.1667,33.5 78.5,33.5C 78.8293,48.3428 78.496,63.0095 77.5,77.5C 77.5,62.5 77.5,47.5 77.5,32.5C 79.8333,32.5 82.1667,32.5 84.5,32.5C 84.5,30.1667 84.5,27.8333 84.5,25.5C 81.8333,25.5 79.1667,25.5 76.5,25.5C 76.5,24.1667 76.5,22.8333 76.5,21.5 Z"/></g>
<g><path style="opacity:1" fill="#ec2019" d="M 29.5,33.5 C 31.8896,33.6848 32.8896,35.0182 32.5,37.5C 31.1667,44.1667 29.8333,44.1667 28.5,37.5C 28.6233,36.0755 28.9566,34.7421 29.5,33.5 Z"/></g>
<g><path style="opacity:0.396" fill="#d1b8b8" d="M 47.5,-0.5 C 52.8333,-0.5 58.1667,-0.5 63.5,-0.5C 67.7667,1.88015 71.7667,4.71348 75.5,8C 80.4889,8.49926 85.4889,8.66593 90.5,8.5C 91.1585,37.5195 90.4918,66.1861 88.5,94.5C 88.5,93.8333 88.5,93.1667 88.5,92.5C 88.5,65.1667 88.5,37.8333 88.5,10.5C 83.3595,9.51192 78.0262,9.17859 72.5,9.5C 70.8272,7.16057 68.8272,5.16057 66.5,3.5C 59.2314,1.05693 51.8981,0.890265 44.5,3C 42.0427,4.85222 39.7093,6.68555 37.5,8.5C 38.9418,7.18047 39.6085,5.5138 39.5,3.5C 42.4098,2.57482 45.0764,1.24148 47.5,-0.5 Z"/></g>
<g><path style="opacity:1" fill="#f38888" d="M 44.5,63.5 C 44.56,62.9569 44.8933,62.6236 45.5,62.5C 46.4941,67.456 46.8275,72.456 46.5,77.5C 45.8333,72.8333 45.1667,68.1667 44.5,63.5 Z"/></g>
<g><path style="opacity:1" fill="#1d0404" d="M 4.5,10.5 C 4.83333,10.5 5.16667,10.5 5.5,10.5C 5.5,37.8333 5.5,65.1667 5.5,92.5C 33.1667,92.5 60.8333,92.5 88.5,92.5C 88.5,93.1667 88.5,93.8333 88.5,94.5C 60.5,94.5 32.5,94.5 4.5,94.5C 4.5,66.5 4.5,38.5 4.5,10.5 Z"/></g>
</svg>
